/* XPM */
static char *result[] = {
/* columns rows colors chars-per-pixel */
"32 32 22 1 ",
"  c #664133",
". c #7F513F",
"X c #4C3026",
"o c #352A25",
"O c #141B1B",
"+ c #453229",
"@ c #716C6C",
"# c #99979B",
"$ c #9E8166",
"% c #A17343",
"& c #604731",
"* c #F2EAF1",
"= c #FAC598",
"- c #FFAD5D",
"; c #725535",
": c #F3A068",
"> c #EF8748",
", c #F99E55",
"< c #E46D3A",
"1 c #F4934F",
"2 c #FBA357",
"3 c #57402E",
/* pixels */
"                                ",
"                                ",
"                  ..      XX    ",
"                  ..      XX    ",
"                                ",
"                                ",
"    ..    XX                    ",
"    ..    XX                    ",
"          oOOOOOOOOOO+          ",
"          oOOOOOOOOOO+          ",
"        oo@#$%%%%%%%%&oo    ..  ",
"        OO#*=--------;OO    ..  ",
"        OO$=:>>>>>>,-;OO        ",
"        OO%-><<<<<<1-;OO        ",
"        OO%-><<<<<<1-;OO        ",
"        OO%-><<<<<<1-;OO        ",
"        OO%-><<<<<<1-;OO        ",
"        OO%-><<<<<<1-;OO        ",
"      XXOO%-><<<<<<1-;OO        ",
"      XXOO%-,1111112-;OO        ",
"        OO%----------;OO        ",
"        ++&;;;;;;;;;;3++        ",
"          oOOOOOOOOOO+          ",
"          oOOOOOOOOOO+          ",
"                                ",
"                                ",
"  ..                  XX    ..  ",
"  ..                  XX    ..  ",
"          XX                    ",
"          XX                    ",
"                                ",
"                                "
};
