/* XPM */
static char *result[] = {
/* columns rows colors chars-per-pixel */
"32 32 21 1 ",
"  c #664133",
". c #7F513F",
"X c #4C3026",
"o c #383033",
"O c #192533",
"+ c #423738",
"@ c #22222E",
"# c #13182B",
"$ c #203042",
"% c #182134",
"& c #1B2639",
"* c #543A33",
"= c #0F0F26",
"- c #25374C",
"; c #181F35",
": c #1C273D",
"> c #473633",
", c #1E2C3D",
"< c #1B263A",
"1 c #1D293D",
"2 c #1D2A3D",
/* pixels */
"                                ",
"                                ",
"                  ..      XX    ",
"                  ..      XX    ",
"                                ",
"      oOOOOOOOOOOOOOOOOO        ",
"    .+@###$%##&$###$%###o*      ",
"    .O#===-;==:-===-;===O>      ",
"     O#===-;==:-===-;===O>      ",
"     O#===-;==:-===-;===O>      ",
"     O$---O$--,O---O$---O>  ..  ",
"     O%;;;$<;;1$;;;$<;;;O>  ..  ",
"     O#===-;==:-===-;===O>      ",
"     O#===-;==:-===-;===O>      ",
"     O&:::,1::2,:::,1:::O>      ",
"     O$---O$--,O---O$---O>      ",
"     O#===-;==:-===-;===O>      ",
"     O#===-;==:-===-;===O>      ",
"     O#===-;==:-===-;===O>      ",
"     O$---O$--,O---O$---O>      ",
"     O%;;;$<;;1$;;;$<;;;O>      ",
"     O#===-;==:-===-;===O>      ",
"     O#===-;==:-===-;===O>      ",
"     O#===-;==:-===-;===O>      ",
"      oOOOOOOOOOOOOOOOOO        ",
"      *>>>>>>>>>>>>>>>>>        ",
"  ..                  XX    ..  ",
"  ..                  XX    ..  ",
"          XX                    ",
"          XX                    ",
"                                ",
"                                "
};
