/* XPM */
static char *result[] = {
/* columns rows colors chars-per-pixel */
"32 32 3 1 ",
"  c #664133",
". c #7F513F",
"X c #4C3026",
/* pixels */
"                                ",
"                                ",
"                  ..      XX    ",
"                  ..      XX    ",
"                                ",
"                                ",
"    ..    XX                    ",
"    ..    XX                    ",
"                                ",
"                                ",
"                            ..  ",
"                            ..  ",
"                    XX          ",
"                    XX          ",
"                                ",
"                                ",
"                                ",
"                                ",
"      XX                        ",
"      XX                        ",
"                ..              ",
"                ..              ",
"                                ",
"                                ",
"                                ",
"                                ",
"  ..                  XX    ..  ",
"  ..                  XX    ..  ",
"          XX                    ",
"          XX                    ",
"                                ",
"                                "
};
