/* XPM */
static char *result[] = {
/* columns rows colors chars-per-pixel */
"32 32 11 1 ",
"  c #664133",
". c #141B1B",
"X c #3B3643",
"o c #4C3026",
"O c #7F513F",
"+ c #4E484A",
"@ c #D14B34",
"# c #EF914F",
"$ c #79B8CE",
"% c #F2EAF1",
"& c #548789",
/* pixels */
"            ........            ",
"            ........            ",
"          ..XXXXXXXX..    oo    ",
"          ..XXXXXXXX..    oo    ",
"          ............          ",
"          ............          ",
"    OO....++++++++++XX....      ",
"    OO....++++++++++XX....      ",
"    ..XXXX++++++++++XXXXXX..    ",
"    ..XXXX++++++++++XXXXXX..    ",
"    ..XXXXXX++++++XXXXXXXXXX..  ",
"    ..XXXXXX++++++XXXXXXXXXX..  ",
"  ..XXXXXXXXXXXXXXXXXXXXXXXX..  ",
"  ..XXXXXXXXXXXXXXXXXXXXXXXX..  ",
"  ..XXXXXX@@@@@@XXXX@@@@XXXX..  ",
"  ..XXXXXX@@@@@@XXXX@@@@XXXX..  ",
"    ..XX....@@XXXX@@....XX..    ",
"    ..XX....@@XXXX@@....XX..    ",
"  ..##XX####..####..####XX##..  ",
"  ..##XX####..####..####XX##..  ",
"  ..##########@@@@##########@@..",
"  ..##########@@@@##########@@..",
"    ....################..@@@@..",
"    ....################..@@@@..",
"    ..$$$$@@@@XXXX@@@@$$$$$$..  ",
"    ..$$$$@@@@XXXX@@@@$$$$$$..  ",
"  OO....$$$$$$%%%%&&&&$$$$..OO  ",
"  OO....$$$$$$%%%%&&&&$$$$..OO  ",
"  ..&&&&@@####......&&&&&&&&..  ",
"  ..&&&&@@####......&&&&&&&&..  ",
"..&&&&&&######..    ..&&&&&&&&..",
"..&&&&&&######..    ..&&&&&&&&.."
};
