/* XPM */
static char *result[] = {
/* columns rows colors chars-per-pixel */
"32 32 5 1 ",
"  c #748CA5",
". c #5B7999",
"X c #192533",
"o c #334B66",
"O c #25374C",
/* pixels */
"    ..XX      ..    ..XX      ..",
"    ..XX      ..    ..XX      ..",
"......XX  ............XX  ......",
"......XX  ............XX  ......",
"ooooooOOooooooooooooooOOoooooooo",
"ooooooOOooooooooooooooOOoooooooo",
"XXXXOOOOOOXXXXXXXXXXOOOOOOXXXXXX",
"XXXXOOOOOOXXXXXXXXXXOOOOOOXXXXXX",
"    ..    ..XX      ..    ..XX  ",
"    ..    ..XX      ..    ..XX  ",
"............XX  ............XX  ",
"............XX  ............XX  ",
"ooooooooooooOOooooooooooooooOOoo",
"ooooooooooooOOooooooooooooooOOoo",
"XXXXXXXXXXOOOOOOXXXXXXXXXXOOOOOO",
"XXXXXXXXXXOOOOOOXXXXXXXXXXOOOOOO",
"    ..XX      ..    ..XX      ..",
"    ..XX      ..    ..XX      ..",
"......XX  ............XX  ......",
"......XX  ............XX  ......",
"ooooooOOooooooooooooooOOoooooooo",
"ooooooOOooooooooooooooOOoooooooo",
"XXXXOOOOOOXXXXXXXXXXOOOOOOXXXXXX",
"XXXXOOOOOOXXXXXXXXXXOOOOOOXXXXXX",
"    ..    ..XX      ..    ..XX  ",
"    ..    ..XX      ..    ..XX  ",
"............XX  ............XX  ",
"............XX  ............XX  ",
"ooooooooooooOOooooooooooooooOOoo",
"ooooooooooooOOooooooooooooooOOoo",
"XXXXXXXXXXOOOOOOXXXXXXXXXXOOOOOO",
"XXXXXXXXXXOOOOOOXXXXXXXXXXOOOOOO"
};
